<svg id="svg" version="1.1" xmlns="http://www.w3.org/2000/svg" xmlns:xlink="http://www.w3.org/1999/xlink" width="400" height="400" viewBox="0, 0, 400,400"><g id="svgg"><path id="path0" d="M109.802 84.624 C 106.650 88.395,99.971 97.911,97.904 101.577 C 96.297 104.425,95.256 106.601,93.584 110.600 C 93.252 111.394,92.786 114.050,92.777 115.200 C 92.764 116.845,93.342 120.441,93.650 120.631 C 93.843 120.750,94.000 121.186,94.000 121.601 C 94.000 123.287,97.005 127.510,99.748 129.679 L 101.697 131.220 102.948 129.552 C 103.637 128.635,104.785 127.287,105.500 126.556 C 106.215 125.825,106.800 125.077,106.800 124.894 C 106.800 123.979,116.272 113.857,119.989 110.800 C 121.192 109.810,123.056 108.145,124.129 107.100 C 125.203 106.055,126.255 105.200,126.467 105.200 C 126.855 105.200,126.514 103.579,126.045 103.200 C 125.910 103.090,125.533 102.460,125.209 101.800 C 123.740 98.810,112.272 82.800,111.599 82.800 C 111.449 82.800,110.640 83.621,109.802 84.624 M194.400 172.611 C 180.712 174.716,169.715 182.087,162.488 194.000 L 160.911 196.600 120.656 196.702 L 80.400 196.804 80.400 199.527 C 80.400 205.343,82.110 214.733,84.036 219.500 C 84.236 219.995,84.558 220.805,84.751 221.300 C 86.459 225.679,90.112 232.031,93.760 236.963 C 94.992 238.629,96.000 240.074,96.000 240.173 C 96.000 240.480,109.483 253.666,110.499 254.354 C 111.025 254.709,113.152 256.364,115.227 258.032 C 126.282 266.917,142.737 276.470,161.200 284.721 C 169.822 288.575,189.290 295.813,197.975 298.394 C 201.383 299.407,199.886 299.694,212.000 295.705 C 216.290 294.292,221.978 292.251,224.639 291.168 C 227.300 290.086,229.597 289.200,229.743 289.200 C 229.889 289.200,230.862 288.822,231.904 288.360 C 232.947 287.898,234.205 287.358,234.700 287.160 C 235.195 286.962,236.005 286.638,236.500 286.441 C 242.648 283.987,259.383 275.753,264.341 272.743 C 265.738 271.894,266.966 271.200,267.069 271.200 C 267.172 271.200,268.041 270.660,269.000 270.000 C 269.959 269.340,270.857 268.800,270.995 268.800 C 271.685 268.800,284.019 260.111,288.400 256.539 C 297.613 249.027,308.436 237.469,310.502 232.936 C 310.736 232.421,311.080 232.000,311.264 232.000 C 311.449 232.000,311.600 231.807,311.600 231.572 C 311.600 231.337,312.106 230.392,312.725 229.472 C 314.513 226.815,316.846 221.623,318.239 217.200 C 318.551 216.210,318.978 214.860,319.188 214.200 C 320.275 210.784,320.983 204.064,320.843 198.502 L 320.800 196.804 280.743 196.702 L 240.686 196.600 238.707 193.400 C 229.175 177.985,211.963 169.909,194.400 172.611 M213.280 182.425 C 225.394 184.852,230.122 198.770,221.901 207.800 C 219.924 209.972,217.351 211.415,211.200 213.800 C 209.110 214.611,207.175 215.459,206.900 215.686 C 206.513 216.005,206.400 220.297,206.400 234.660 L 206.400 253.223 200.900 253.111 L 195.400 253.000 195.296 234.153 L 195.192 215.306 193.296 214.622 C 192.253 214.246,190.950 213.748,190.400 213.515 C 189.850 213.283,189.040 212.969,188.600 212.818 C 172.872 207.415,171.309 188.113,186.200 183.182 C 188.920 182.281,209.668 181.701,213.280 182.425 " stroke="none" fill="#f7f7fb" fill-rule="evenodd"></path><path id="path1" d="M179.500 0.273 C 177.355 0.359,175.600 0.588,175.600 0.783 C 175.600 0.978,174.295 1.235,172.700 1.355 C 167.289 1.762,165.198 2.073,165.423 2.437 C 165.603 2.729,162.321 3.040,161.100 2.847 C 160.935 2.821,160.800 2.980,160.800 3.200 C 160.800 3.420,160.080 3.600,159.200 3.600 C 158.320 3.600,157.600 3.780,157.600 4.000 C 157.600 4.220,156.891 4.400,156.024 4.400 C 155.157 4.400,154.336 4.580,154.200 4.800 C 154.064 5.020,153.243 5.200,152.376 5.200 C 151.509 5.200,150.800 5.380,150.800 5.600 C 150.800 5.820,150.080 6.000,149.200 6.000 C 148.320 6.000,147.600 6.180,147.600 6.400 C 147.600 6.620,146.970 6.800,146.200 6.800 C 145.430 6.800,144.800 6.980,144.800 7.200 C 144.800 7.420,144.170 7.600,143.400 7.600 C 142.630 7.600,142.000 7.757,142.000 7.949 C 142.000 8.141,141.262 8.416,140.361 8.560 C 138.926 8.789,132.866 10.659,130.600 11.571 C 128.756 12.313,127.357 12.915,126.705 13.247 C 126.323 13.441,125.738 13.600,125.405 13.600 C 125.072 13.600,124.800 13.780,124.800 14.000 C 124.800 14.220,124.350 14.400,123.800 14.400 C 123.250 14.400,122.800 14.560,122.800 14.756 C 122.800 14.952,121.990 15.351,121.000 15.643 C 120.010 15.935,119.200 16.315,119.200 16.487 C 119.200 16.659,118.840 16.800,118.400 16.800 C 117.960 16.800,117.600 16.980,117.600 17.200 C 117.600 17.420,117.328 17.600,116.995 17.600 C 116.662 17.600,116.077 17.760,115.695 17.956 C 115.313 18.152,114.100 18.737,113.000 19.256 C 111.900 19.775,110.940 20.335,110.867 20.500 C 110.793 20.665,110.478 20.800,110.167 20.800 C 109.855 20.800,109.600 20.980,109.600 21.200 C 109.600 21.420,109.150 21.600,108.600 21.600 C 108.050 21.600,107.600 21.780,107.600 22.000 C 107.600 22.220,107.322 22.400,106.983 22.400 C 106.644 22.400,105.980 22.760,105.508 23.200 C 105.036 23.640,104.413 24.000,104.125 24.000 C 103.836 24.000,103.600 24.180,103.600 24.400 C 103.600 24.620,103.358 24.800,103.061 24.800 C 102.484 24.800,99.931 25.972,99.600 26.390 C 99.490 26.528,98.770 26.937,98.000 27.298 C 97.230 27.658,95.980 28.414,95.222 28.977 C 94.465 29.540,93.691 30.000,93.504 30.000 C 93.317 30.000,92.710 30.453,92.156 31.008 C 91.602 31.562,91.013 31.931,90.847 31.829 C 90.681 31.727,90.293 31.993,89.985 32.421 C 89.676 32.850,89.143 33.200,88.800 33.200 C 88.457 33.200,87.917 33.560,87.600 34.000 C 87.283 34.440,86.743 34.800,86.400 34.800 C 86.057 34.800,85.517 35.160,85.200 35.600 C 84.883 36.040,84.393 36.400,84.112 36.400 C 83.830 36.400,83.600 36.580,83.600 36.800 C 83.600 37.020,83.370 37.200,83.088 37.200 C 82.807 37.200,82.317 37.560,82.000 38.000 C 81.683 38.440,81.175 38.800,80.872 38.800 C 80.569 38.800,79.817 39.340,79.200 40.000 C 78.583 40.660,77.973 41.200,77.843 41.200 C 77.712 41.200,77.200 41.549,76.703 41.976 C 76.206 42.402,75.367 43.122,74.839 43.576 C 74.310 44.029,73.737 44.400,73.565 44.400 C 73.394 44.400,72.296 45.303,71.127 46.407 C 67.483 49.845,66.858 50.400,66.631 50.400 C 66.510 50.400,62.828 54.000,58.449 58.400 C 54.070 62.800,50.544 66.400,50.613 66.400 C 50.803 66.400,49.233 68.213,47.100 70.455 C 46.055 71.554,45.200 72.621,45.200 72.826 C 45.200 73.031,44.480 73.963,43.600 74.897 C 42.720 75.831,42.000 76.801,42.000 77.053 C 42.000 77.304,41.462 77.935,40.804 78.455 C 40.146 78.975,39.606 79.675,39.604 80.012 C 39.602 80.348,39.240 80.883,38.800 81.200 C 38.360 81.517,38.000 82.007,38.000 82.288 C 38.000 82.570,37.820 82.800,37.600 82.800 C 37.380 82.800,37.200 83.030,37.200 83.312 C 37.200 83.593,36.840 84.083,36.400 84.400 C 35.960 84.717,35.600 85.257,35.600 85.600 C 35.600 85.943,35.240 86.483,34.800 86.800 C 34.360 87.117,34.000 87.657,34.000 88.000 C 34.000 88.343,33.650 88.876,33.221 89.185 C 32.793 89.493,32.527 89.881,32.629 90.047 C 32.731 90.213,32.362 90.802,31.808 91.356 C 31.253 91.910,30.800 92.559,30.800 92.799 C 30.800 93.038,30.440 93.620,30.000 94.092 C 29.560 94.564,28.976 95.456,28.703 96.075 C 28.429 96.694,28.069 97.200,27.902 97.200 C 27.736 97.200,27.600 97.560,27.600 98.000 C 27.600 98.440,27.434 98.800,27.232 98.800 C 27.029 98.800,26.745 99.340,26.600 100.000 C 26.455 100.660,26.203 101.200,26.040 101.200 C 25.876 101.200,25.336 102.100,24.839 103.200 C 24.342 104.300,23.769 105.200,23.567 105.200 C 23.365 105.200,23.200 105.560,23.200 106.000 C 23.200 106.440,23.020 106.800,22.800 106.800 C 22.580 106.800,22.400 107.250,22.400 107.800 C 22.400 108.350,22.220 108.800,22.000 108.800 C 21.780 108.800,21.600 109.055,21.600 109.367 C 21.600 109.678,21.465 109.993,21.300 110.067 C 21.135 110.140,20.575 111.100,20.056 112.200 C 19.537 113.300,18.952 114.513,18.756 114.895 C 18.560 115.277,18.400 115.862,18.400 116.195 C 18.400 116.528,18.220 116.800,18.000 116.800 C 17.780 116.800,17.600 117.160,17.600 117.600 C 17.600 118.040,17.420 118.400,17.200 118.400 C 16.980 118.400,16.800 118.665,16.800 118.988 C 16.800 119.311,16.440 120.217,16.000 121.000 C 15.560 121.783,15.200 122.779,15.200 123.212 C 15.200 123.645,15.020 124.000,14.800 124.000 C 14.580 124.000,14.400 124.272,14.400 124.605 C 14.400 124.938,14.241 125.523,14.047 125.905 C 13.852 126.287,13.516 127.050,13.300 127.600 C 13.084 128.150,12.711 129.050,12.470 129.600 C 11.841 131.041,9.957 136.825,9.738 137.988 C 9.636 138.531,9.377 139.187,9.162 139.445 C 8.948 139.704,8.663 140.834,8.530 141.958 C 8.397 143.081,8.134 144.000,7.944 144.000 C 7.755 144.000,7.600 144.630,7.600 145.400 C 7.600 146.170,7.420 146.800,7.200 146.800 C 6.980 146.800,6.800 147.419,6.800 148.176 C 6.800 148.933,6.620 149.664,6.400 149.800 C 6.180 149.936,6.000 150.746,6.000 151.600 C 6.000 152.454,5.820 153.264,5.600 153.400 C 5.380 153.536,5.200 154.357,5.200 155.224 C 5.200 156.091,5.020 156.800,4.800 156.800 C 4.580 156.800,4.400 157.520,4.400 158.400 C 4.400 159.280,4.252 160.000,4.071 160.000 C 3.891 160.000,3.701 160.945,3.649 162.100 C 3.598 163.255,3.386 164.260,3.178 164.333 C 2.970 164.407,2.800 165.341,2.800 166.410 C 2.800 167.478,2.620 168.464,2.400 168.600 C 2.180 168.736,2.000 170.187,2.000 171.824 C 2.000 173.541,1.831 174.800,1.600 174.800 C 1.362 174.800,1.200 176.307,1.200 178.520 C 1.200 180.566,1.016 182.424,0.791 182.649 C -0.040 183.480,0.762 224.097,1.627 224.980 C 1.832 225.189,2.000 226.573,2.000 228.056 C 2.000 229.539,2.180 230.864,2.400 231.000 C 2.620 231.136,2.800 232.227,2.800 233.424 C 2.800 234.621,2.980 235.600,3.200 235.600 C 3.420 235.600,3.600 236.590,3.600 237.800 C 3.600 239.010,3.780 240.000,4.000 240.000 C 4.220 240.000,4.400 240.720,4.400 241.600 C 4.400 242.480,4.580 243.200,4.800 243.200 C 5.020 243.200,5.200 243.999,5.200 244.976 C 5.200 245.953,5.380 246.864,5.600 247.000 C 5.820 247.136,6.000 247.957,6.000 248.824 C 6.000 249.691,6.180 250.400,6.400 250.400 C 6.620 250.400,6.800 250.929,6.800 251.576 C 6.800 252.223,6.980 252.864,7.200 253.000 C 7.420 253.136,7.600 253.777,7.600 254.424 C 7.600 255.071,7.755 255.600,7.944 255.600 C 8.134 255.600,8.393 256.480,8.520 257.556 C 8.734 259.360,10.338 264.738,10.800 265.200 C 10.910 265.310,11.061 265.850,11.135 266.400 C 11.209 266.950,11.434 267.571,11.635 267.780 C 11.836 267.989,12.000 268.574,12.000 269.080 C 12.000 269.586,12.180 270.000,12.400 270.000 C 12.620 270.000,12.800 270.355,12.800 270.788 C 12.800 271.221,13.160 272.217,13.600 273.000 C 14.040 273.783,14.400 274.779,14.400 275.212 C 14.400 275.645,14.547 276.000,14.728 276.000 C 14.908 276.000,15.300 276.900,15.600 278.000 C 15.900 279.100,16.292 280.000,16.472 280.000 C 16.653 280.000,16.800 280.360,16.800 280.800 C 16.800 281.240,16.936 281.600,17.102 281.600 C 17.269 281.600,17.644 282.185,17.936 282.900 C 18.228 283.615,18.617 284.560,18.800 285.000 C 18.983 285.440,19.372 286.385,19.664 287.100 C 19.956 287.815,20.331 288.400,20.498 288.400 C 20.664 288.400,20.800 288.670,20.800 289.000 C 20.800 289.330,20.980 289.600,21.200 289.600 C 21.420 289.600,21.600 290.050,21.600 290.600 C 21.600 291.150,21.780 291.600,22.000 291.600 C 22.220 291.600,22.400 291.960,22.400 292.400 C 22.400 292.840,22.552 293.200,22.737 293.200 C 22.923 293.200,23.505 294.055,24.032 295.100 C 24.558 296.145,25.082 297.090,25.195 297.200 C 25.308 297.310,25.459 297.670,25.530 298.000 C 25.602 298.330,25.828 298.660,26.032 298.734 C 26.237 298.808,26.303 299.033,26.179 299.234 C 26.055 299.435,26.154 299.600,26.400 299.600 C 26.646 299.600,26.736 299.780,26.600 300.000 C 26.464 300.220,26.554 300.400,26.800 300.400 C 27.046 300.400,27.136 300.580,27.000 300.800 C 26.864 301.020,26.943 301.200,27.176 301.200 C 27.409 301.200,27.600 301.388,27.600 301.617 C 27.600 302.019,30.333 306.490,31.185 307.483 C 31.413 307.749,31.600 308.154,31.600 308.383 C 31.600 308.612,31.780 308.800,32.000 308.800 C 32.220 308.800,32.400 309.120,32.400 309.512 C 32.400 309.903,32.760 310.483,33.200 310.800 C 33.640 311.117,34.000 311.609,34.000 311.892 C 34.000 312.175,34.540 312.972,35.200 313.663 C 35.860 314.354,36.400 315.122,36.400 315.371 C 36.400 315.620,36.760 316.083,37.200 316.400 C 37.640 316.717,38.000 317.257,38.000 317.600 C 38.000 317.943,38.360 318.483,38.800 318.800 C 39.240 319.117,39.605 319.562,39.611 319.788 C 39.618 320.015,40.338 321.003,41.211 321.986 C 42.085 322.968,42.800 323.893,42.800 324.043 C 42.800 324.193,43.340 324.893,44.000 325.600 C 44.660 326.307,45.200 327.022,45.200 327.189 C 45.200 327.357,46.370 328.705,47.800 330.185 C 49.230 331.665,50.400 333.026,50.400 333.209 C 50.400 333.741,57.091 340.376,57.358 340.108 C 57.491 339.975,57.600 340.072,57.600 340.323 C 57.600 340.851,67.007 350.400,67.527 350.400 C 67.717 350.400,68.698 351.165,69.707 352.100 C 70.716 353.035,72.050 354.190,72.671 354.666 C 73.690 355.447,74.947 356.465,76.283 357.593 C 76.549 357.817,76.914 358.000,77.095 358.000 C 77.276 358.000,77.683 358.360,78.000 358.800 C 78.317 359.240,78.817 359.600,79.112 359.600 C 79.406 359.600,79.536 359.780,79.400 360.000 C 79.264 360.220,79.410 360.400,79.724 360.400 C 80.373 360.400,81.041 358.136,81.375 354.800 C 81.497 353.590,81.777 351.250,81.998 349.600 C 82.219 347.950,82.580 345.160,82.800 343.400 C 83.020 341.640,83.369 338.940,83.575 337.400 C 83.780 335.860,84.140 333.115,84.374 331.300 C 85.221 324.736,85.656 321.348,86.005 318.600 C 86.200 317.060,86.723 313.010,87.167 309.600 C 87.611 306.190,88.436 299.800,89.002 295.400 C 89.567 291.000,90.211 286.050,90.432 284.400 C 90.890 280.979,91.423 276.839,92.001 272.200 C 92.221 270.440,92.580 267.650,92.800 266.000 C 93.020 264.350,93.380 261.560,93.600 259.800 C 93.820 258.040,94.181 255.250,94.401 253.600 C 96.387 238.736,96.454 240.606,93.805 237.024 C 90.113 232.032,86.467 225.700,84.751 221.300 C 84.558 220.805,84.238 219.995,84.040 219.500 C 81.489 213.114,80.137 204.032,80.551 196.051 C 80.844 190.409,81.447 183.420,81.747 182.200 C 81.855 181.760,82.150 180.230,82.402 178.800 C 84.045 169.483,87.561 158.238,91.575 149.463 L 92.278 147.926 89.478 145.263 C 79.531 135.801,75.777 129.003,74.789 118.667 C 74.143 111.911,76.497 102.940,80.422 97.200 C 80.799 96.650,81.465 95.570,81.903 94.800 C 87.545 84.892,97.889 71.435,108.553 60.131 L 111.459 57.050 129.229 74.720 C 142.030 87.450,147.186 92.331,147.668 92.178 C 148.037 92.061,149.657 91.323,151.269 90.537 C 157.995 87.260,172.403 82.905,180.800 81.612 C 182.450 81.358,184.790 80.988,186.000 80.790 C 193.890 79.500,208.253 79.673,218.600 81.184 C 220.140 81.409,222.348 81.707,223.507 81.847 C 224.666 81.986,225.712 82.258,225.831 82.450 C 225.950 82.643,226.429 82.800,226.895 82.800 C 227.362 82.800,228.296 82.973,228.972 83.185 C 229.647 83.396,231.730 83.943,233.600 84.400 C 237.438 85.338,245.740 88.280,249.500 90.034 C 256.232 93.174,257.485 93.797,258.561 94.540 L 259.722 95.342 260.659 94.171 C 261.174 93.527,261.597 92.859,261.598 92.687 C 261.611 90.625,278.031 69.518,286.682 60.443 L 289.963 57.000 343.378 110.400 C 372.757 139.770,397.065 163.858,397.397 163.929 C 398.101 164.080,398.287 161.025,397.600 160.600 C 397.380 160.464,397.200 159.553,397.200 158.576 C 397.200 157.599,397.020 156.800,396.800 156.800 C 396.580 156.800,396.400 156.080,396.400 155.200 C 396.400 154.320,396.238 153.600,396.040 153.600 C 395.842 153.600,395.581 152.835,395.459 151.900 C 395.020 148.537,394.706 147.200,394.356 147.200 C 394.160 147.200,394.000 146.570,394.000 145.800 C 394.000 145.030,393.820 144.400,393.600 144.400 C 393.380 144.400,393.200 143.860,393.200 143.200 C 393.200 142.540,393.020 142.000,392.800 142.000 C 392.580 142.000,392.400 141.280,392.400 140.400 C 392.400 139.520,392.220 138.800,392.000 138.800 C 391.780 138.800,391.594 138.305,391.586 137.700 C 391.579 137.095,391.234 135.883,390.820 135.008 C 390.406 134.132,390.145 133.289,390.240 133.135 C 390.335 132.981,390.230 132.742,390.007 132.604 C 389.783 132.466,389.600 131.924,389.600 131.400 C 389.600 130.876,389.420 130.336,389.200 130.200 C 388.980 130.064,388.800 129.513,388.800 128.976 C 388.800 128.439,388.656 128.000,388.480 128.000 C 388.106 128.000,387.200 125.646,387.200 124.672 C 387.200 124.302,387.020 124.000,386.800 124.000 C 386.580 124.000,386.400 123.728,386.400 123.395 C 386.400 123.062,386.243 122.477,386.050 122.095 C 384.552 119.120,384.000 117.847,384.000 117.362 C 384.000 117.053,383.865 116.799,383.700 116.797 C 383.294 116.793,382.400 114.814,382.400 113.920 C 382.400 113.524,382.220 113.200,382.000 113.200 C 381.780 113.200,381.600 112.840,381.600 112.400 C 381.600 111.960,381.420 111.600,381.200 111.600 C 380.980 111.600,380.800 111.240,380.800 110.800 C 380.800 110.360,380.665 109.999,380.500 109.997 C 380.335 109.995,380.002 109.590,379.760 109.097 C 378.578 106.689,377.370 104.587,377.100 104.467 C 376.935 104.393,376.800 103.988,376.800 103.567 C 376.800 103.145,376.620 102.800,376.400 102.800 C 376.180 102.800,376.000 102.455,376.000 102.033 C 376.000 101.612,375.865 101.207,375.700 101.133 C 375.535 101.060,374.701 99.650,373.847 98.000 C 372.993 96.350,372.183 94.910,372.046 94.800 C 371.910 94.690,371.545 94.108,371.235 93.507 C 370.926 92.905,370.341 92.058,369.936 91.623 C 369.531 91.189,369.200 90.638,369.200 90.399 C 369.200 90.159,368.764 89.528,368.231 88.995 C 367.698 88.462,367.146 87.660,367.004 87.213 C 366.862 86.766,366.578 86.400,366.373 86.400 C 366.168 86.400,366.000 86.157,366.000 85.859 C 366.000 85.562,365.460 84.754,364.800 84.063 C 364.140 83.372,363.600 82.624,363.600 82.400 C 363.600 82.176,363.060 81.428,362.400 80.737 C 361.740 80.046,361.200 79.310,361.200 79.101 C 361.200 78.892,360.660 78.217,360.000 77.600 C 359.340 76.983,358.800 76.358,358.800 76.211 C 358.800 76.063,358.575 75.706,358.300 75.416 C 358.025 75.126,357.440 74.389,357.000 73.778 C 356.560 73.168,355.975 72.441,355.700 72.163 C 355.425 71.885,355.200 71.540,355.200 71.397 C 355.200 71.254,354.519 70.476,353.687 69.669 C 352.855 68.861,351.734 67.570,351.196 66.800 C 349.992 65.078,344.903 60.000,344.380 60.000 C 344.171 60.000,344.000 59.742,344.000 59.427 C 344.000 59.112,343.680 58.752,343.289 58.628 C 342.898 58.504,342.313 58.017,341.989 57.546 C 340.935 56.015,336.052 51.200,335.553 51.200 C 335.285 51.200,335.186 51.081,335.331 50.935 C 335.477 50.790,334.958 50.237,334.178 49.708 C 333.398 49.178,331.735 47.767,330.482 46.572 C 329.228 45.377,328.080 44.400,327.930 44.400 C 327.780 44.400,327.419 44.168,327.129 43.886 C 326.838 43.603,325.884 42.838,325.009 42.186 C 324.134 41.533,322.892 40.505,322.250 39.900 C 321.607 39.295,320.878 38.800,320.629 38.800 C 320.380 38.800,319.917 38.440,319.600 38.000 C 319.283 37.560,318.791 37.200,318.508 37.200 C 318.225 37.200,317.428 36.660,316.737 36.000 C 316.046 35.340,315.321 34.800,315.124 34.800 C 314.927 34.800,314.380 34.440,313.908 34.000 C 313.436 33.560,312.813 33.200,312.525 33.200 C 312.236 33.200,312.000 33.020,312.000 32.800 C 312.000 32.580,311.719 32.400,311.376 32.400 C 311.033 32.400,310.864 32.220,311.000 32.000 C 311.136 31.780,310.877 31.600,310.424 31.600 C 309.971 31.600,309.600 31.420,309.600 31.200 C 309.600 30.980,309.330 30.800,309.000 30.800 C 308.670 30.800,308.400 30.620,308.400 30.400 C 308.400 30.180,308.130 30.000,307.800 30.000 C 307.470 30.000,307.200 29.820,307.200 29.600 C 307.200 29.380,307.012 29.200,306.783 29.200 C 306.554 29.200,305.987 28.846,305.523 28.414 C 305.059 27.981,304.547 27.709,304.385 27.809 C 304.223 27.909,303.868 27.723,303.596 27.396 C 303.324 27.068,302.913 26.800,302.683 26.800 C 302.452 26.800,301.979 26.560,301.631 26.266 C 301.284 25.972,300.370 25.487,299.600 25.189 C 298.830 24.890,298.110 24.543,298.000 24.417 C 297.890 24.292,296.945 23.758,295.900 23.232 C 294.855 22.705,294.000 22.123,294.000 21.937 C 294.000 21.752,293.640 21.600,293.200 21.600 C 292.760 21.600,292.400 21.420,292.400 21.200 C 292.400 20.980,291.950 20.800,291.400 20.800 C 290.850 20.800,290.400 20.620,290.400 20.400 C 290.400 20.180,290.130 20.000,289.800 20.000 C 289.470 20.000,289.200 19.820,289.200 19.600 C 289.200 19.380,288.935 19.200,288.612 19.200 C 288.289 19.200,287.383 18.840,286.600 18.400 C 285.817 17.960,284.911 17.600,284.588 17.600 C 284.265 17.600,284.000 17.420,284.000 17.200 C 284.000 16.980,283.640 16.800,283.200 16.800 C 282.760 16.800,282.400 16.620,282.400 16.400 C 282.400 16.180,281.939 16.000,281.376 16.000 C 280.813 16.000,280.445 15.850,280.558 15.667 C 280.671 15.484,279.872 15.092,278.782 14.795 C 277.692 14.498,276.800 14.108,276.800 13.928 C 276.800 13.747,276.361 13.600,275.824 13.600 C 275.287 13.600,274.751 13.445,274.634 13.255 C 274.517 13.065,273.606 12.682,272.610 12.403 C 271.615 12.124,270.800 11.739,270.800 11.548 C 270.800 11.357,270.380 11.200,269.867 11.200 C 269.353 11.200,268.808 11.075,268.655 10.922 C 268.502 10.769,268.157 10.596,267.888 10.537 C 267.620 10.479,266.056 9.974,264.414 9.416 C 262.772 8.857,261.027 8.400,260.538 8.400 C 260.048 8.400,259.536 8.220,259.400 8.000 C 259.264 7.780,258.634 7.600,258.000 7.600 C 257.366 7.600,256.736 7.420,256.600 7.200 C 256.464 6.980,255.834 6.800,255.200 6.800 C 254.566 6.800,253.936 6.620,253.800 6.400 C 253.664 6.180,253.023 6.000,252.376 6.000 C 251.729 6.000,251.200 5.820,251.200 5.600 C 251.200 5.380,250.491 5.200,249.624 5.200 C 248.757 5.200,247.936 5.020,247.800 4.800 C 247.664 4.580,246.753 4.400,245.776 4.400 C 244.799 4.400,244.000 4.220,244.000 4.000 C 244.000 3.780,243.280 3.600,242.400 3.600 C 241.520 3.600,240.800 3.420,240.800 3.200 C 240.800 2.980,239.810 2.800,238.600 2.800 C 237.390 2.800,236.400 2.652,236.400 2.471 C 236.400 2.291,235.455 2.101,234.300 2.049 C 233.145 1.997,232.029 1.785,231.820 1.577 C 231.611 1.370,230.252 1.200,228.800 1.200 C 227.282 1.200,225.956 0.996,225.681 0.721 C 225.205 0.245,188.995 -0.106,179.500 0.273 M398.800 171.000 C 398.800 171.990,398.946 172.800,399.125 172.800 C 399.304 172.800,399.492 171.990,399.544 171.000 C 399.598 169.954,399.461 169.200,399.218 169.200 C 398.988 169.200,398.800 170.010,398.800 171.000 M399.701 177.000 C 399.705 177.880,399.787 178.193,399.883 177.695 C 399.979 177.198,399.975 176.478,399.875 176.095 C 399.775 175.713,399.696 176.120,399.701 177.000 M320.901 198.600 C 320.905 199.480,320.987 199.793,321.083 199.295 C 321.179 198.798,321.175 198.078,321.075 197.695 C 320.975 197.313,320.896 197.720,320.901 198.600 M320.881 203.250 C 320.837 204.708,320.698 206.507,320.573 207.250 C 320.391 208.337,320.433 208.465,320.790 207.906 C 321.054 207.493,321.178 205.877,321.098 203.906 C 320.968 200.726,320.960 200.701,320.881 203.250 M320.059 210.200 C 320.020 210.640,319.877 211.450,319.740 212.000 C 319.548 212.770,319.602 212.897,319.975 212.551 C 320.244 212.301,320.385 211.503,320.293 210.751 C 320.202 210.008,320.097 209.760,320.059 210.200 M319.073 214.153 C 318.923 214.545,318.811 215.166,318.825 215.533 C 318.842 215.975,318.981 215.874,319.237 215.234 C 319.449 214.703,319.561 214.082,319.485 213.854 C 319.409 213.627,319.224 213.761,319.073 214.153 M318.288 216.933 C 317.842 218.066,317.915 218.645,318.438 218.122 C 318.678 217.882,318.808 217.351,318.726 216.942 C 318.582 216.226,318.566 216.226,318.288 216.933 M317.003 220.691 C 315.880 223.702,313.959 227.649,312.728 229.472 C 312.108 230.392,311.600 231.337,311.600 231.572 C 311.600 231.807,311.453 232.000,311.274 232.000 C 311.095 232.000,310.647 232.585,310.280 233.300 C 309.912 234.015,308.622 235.898,307.413 237.485 C 306.204 239.071,305.446 240.281,305.728 240.172 C 306.011 240.064,306.554 239.447,306.935 238.802 C 307.316 238.157,307.858 237.398,308.139 237.115 C 310.774 234.462,318.695 219.761,317.912 218.978 C 317.804 218.870,317.395 219.641,317.003 220.691 M398.812 229.820 C 398.823 230.854,398.877 230.909,399.254 230.261 C 399.561 229.732,399.558 229.398,399.241 229.081 C 398.920 228.760,398.803 228.959,398.812 229.820 M396.400 242.400 C 396.400 243.147,396.507 243.253,396.880 242.880 C 397.253 242.507,397.253 242.293,396.880 241.920 C 396.507 241.547,396.400 241.653,396.400 242.400 M394.800 249.624 C 394.800 250.077,394.980 250.336,395.200 250.200 C 395.420 250.064,395.600 249.693,395.600 249.376 C 395.600 249.059,395.420 248.800,395.200 248.800 C 394.980 248.800,394.800 249.171,394.800 249.624 M389.000 268.800 C 388.850 269.273,388.817 269.750,388.927 269.860 C 389.037 269.970,389.250 269.673,389.400 269.200 C 389.550 268.727,389.583 268.250,389.473 268.140 C 389.363 268.030,389.150 268.327,389.000 268.800 M388.292 271.042 C 388.131 271.202,388.000 271.609,388.000 271.947 C 388.000 272.397,388.118 272.442,388.445 272.115 C 388.690 271.870,388.821 271.463,388.737 271.210 C 388.652 270.957,388.452 270.881,388.292 271.042 M385.092 278.642 C 384.931 278.802,384.800 279.209,384.800 279.547 C 384.800 279.997,384.918 280.042,385.245 279.715 C 385.490 279.470,385.621 279.063,385.537 278.810 C 385.452 278.557,385.252 278.481,385.092 278.642 M368.100 310.223 C 367.511 310.863,367.462 311.200,367.957 311.200 C 368.298 311.200,368.937 309.996,368.709 309.783 C 368.649 309.727,368.375 309.925,368.100 310.223 M360.124 321.373 C 359.479 322.108,359.953 322.504,360.648 321.810 C 360.951 321.506,361.200 321.154,361.200 321.029 C 361.200 320.626,360.615 320.813,360.124 321.373 M354.104 329.021 C 353.831 329.316,353.741 329.638,353.904 329.737 C 354.067 329.835,354.423 329.674,354.696 329.379 C 354.969 329.084,355.059 328.762,354.896 328.663 C 354.733 328.565,354.377 328.726,354.104 329.021 M349.260 334.668 C 348.534 335.453,348.825 335.664,349.725 335.006 C 350.122 334.715,350.302 334.388,350.124 334.280 C 349.946 334.172,349.557 334.347,349.260 334.668 M335.660 348.204 C 334.963 348.871,334.849 349.183,335.222 349.413 C 335.547 349.614,335.623 349.561,335.438 349.262 C 335.273 348.994,335.396 348.800,335.734 348.800 C 336.053 348.800,336.428 348.504,336.567 348.143 C 336.936 347.180,336.714 347.195,335.660 348.204 M87.693 366.000 C 88.162 366.751,88.800 367.080,88.800 366.571 C 88.800 366.273,87.725 365.200,87.425 365.200 C 87.298 365.200,87.418 365.560,87.693 366.000 " stroke="none" fill="#1ca3e3" fill-rule="evenodd"></path><path id="path2" d="M108.696 60.300 C 107.270 61.785,105.247 63.990,104.200 65.200 C 103.153 66.410,101.824 67.940,101.246 68.600 C 95.840 74.782,87.692 85.607,84.387 91.000 C 76.689 103.560,75.009 108.105,75.063 116.234 C 75.131 126.693,80.009 136.922,87.940 143.239 C 89.403 144.404,90.660 145.502,90.733 145.679 C 90.807 145.856,91.062 146.000,91.302 146.000 C 93.046 146.000,93.090 147.143,91.475 150.500 C 90.601 152.315,89.732 154.205,89.543 154.700 C 89.354 155.195,89.037 156.005,88.837 156.500 C 87.550 159.694,86.566 162.592,85.611 166.000 C 85.334 166.990,84.969 168.250,84.800 168.800 C 83.824 171.978,83.020 175.585,82.393 179.600 C 82.135 181.250,81.770 183.500,81.582 184.600 C 81.394 185.700,81.119 188.896,80.972 191.702 L 80.704 196.804 120.807 196.702 L 160.911 196.600 162.488 194.000 C 180.053 165.045,220.974 164.723,238.707 193.400 L 240.686 196.600 280.743 196.702 L 320.800 196.804 320.801 194.102 C 320.802 188.611,318.871 176.211,316.861 168.800 C 316.414 167.150,315.932 165.350,315.790 164.800 C 315.649 164.250,315.386 163.440,315.207 163.000 C 315.028 162.560,314.664 161.570,314.400 160.800 C 313.818 159.107,313.229 157.640,312.753 156.705 C 312.559 156.323,312.400 155.826,312.400 155.601 C 312.400 155.190,311.589 153.283,309.691 149.234 L 308.676 147.068 309.501 146.434 C 315.284 141.991,315.724 141.580,319.134 137.438 C 326.240 128.806,328.487 115.058,324.450 104.907 C 322.499 100.004,317.468 91.195,313.306 85.400 C 312.359 84.080,311.014 82.190,310.318 81.200 C 309.217 79.633,300.999 69.343,300.414 68.800 C 300.296 68.690,299.033 67.250,297.609 65.600 C 296.184 63.950,293.888 61.430,292.507 60.000 L 289.996 57.400 287.092 60.400 C 281.675 65.997,275.482 73.386,269.715 81.131 C 266.776 85.079,265.071 87.598,260.981 94.042 L 260.065 95.484 253.533 92.307 C 249.940 90.559,246.687 88.965,246.305 88.764 C 245.923 88.564,245.336 88.400,245.000 88.400 C 244.664 88.400,244.032 88.220,243.595 88.000 C 243.158 87.780,242.442 87.420,242.005 87.200 C 241.568 86.980,240.936 86.800,240.600 86.800 C 240.264 86.800,239.677 86.641,239.295 86.447 C 237.600 85.584,236.127 85.116,231.400 83.934 C 230.520 83.714,229.080 83.354,228.200 83.134 C 227.320 82.914,225.970 82.578,225.200 82.388 C 224.430 82.197,222.900 81.920,221.800 81.772 C 220.700 81.625,218.810 81.351,217.600 81.163 C 205.292 79.258,185.056 80.205,173.400 83.232 C 171.640 83.689,169.570 84.217,168.800 84.405 C 168.030 84.593,166.770 84.927,166.000 85.146 C 165.230 85.366,164.150 85.674,163.600 85.831 C 163.050 85.987,162.420 86.237,162.200 86.386 C 161.980 86.534,160.990 86.900,160.000 87.198 C 159.010 87.495,158.029 87.888,157.820 88.070 C 157.611 88.251,157.211 88.400,156.930 88.400 C 156.287 88.400,152.343 90.181,146.327 93.187 C 140.902 95.899,141.746 96.185,138.127 90.400 C 135.122 85.599,127.775 75.584,125.389 73.039 C 125.163 72.797,124.105 71.520,123.039 70.200 C 119.464 65.775,112.038 57.600,111.594 57.600 C 111.425 57.600,110.121 58.815,108.696 60.300 M116.277 88.700 C 120.841 94.814,124.190 99.726,125.209 101.800 C 125.533 102.460,125.910 103.090,126.045 103.200 C 126.514 103.579,126.855 105.200,126.467 105.200 C 126.255 105.200,125.203 106.055,124.129 107.100 C 123.056 108.145,121.192 109.810,119.989 110.800 C 116.272 113.857,106.800 123.979,106.800 124.894 C 106.800 125.077,106.215 125.825,105.500 126.556 C 104.785 127.287,103.637 128.635,102.948 129.552 L 101.697 131.220 99.748 129.679 C 97.005 127.510,94.000 123.287,94.000 121.601 C 94.000 121.186,93.843 120.750,93.650 120.631 C 93.342 120.441,92.764 116.845,92.777 115.200 C 92.786 114.050,93.252 111.394,93.584 110.600 C 96.106 104.567,97.410 102.117,100.933 96.800 C 105.135 90.457,110.968 82.800,111.599 82.800 C 111.750 82.800,113.855 85.455,116.277 88.700 M271.280 144.049 C 277.135 145.288,281.200 150.105,281.200 155.804 C 281.200 163.284,273.987 169.243,266.924 167.598 C 254.202 164.635,254.109 146.951,266.800 144.152 C 268.010 143.885,269.036 143.652,269.080 143.634 C 269.124 143.615,270.114 143.802,271.280 144.049 M137.200 144.987 C 144.998 149.011,146.558 159.164,140.232 164.719 C 132.548 171.465,120.400 166.005,120.400 155.804 C 120.400 152.658,121.683 149.622,123.875 147.578 C 126.031 145.569,126.596 145.182,128.296 144.548 C 130.336 143.787,135.355 144.035,137.200 144.987 M96.254 241.079 C 96.114 241.219,96.000 241.964,96.000 242.734 C 96.000 243.504,95.825 245.229,95.610 246.567 C 95.396 247.905,94.756 252.690,94.189 257.200 C 93.272 264.485,92.547 270.146,91.202 280.500 C 90.981 282.205,90.608 285.085,90.374 286.900 C 89.699 292.133,89.197 295.981,88.797 299.000 C 88.592 300.540,88.234 303.330,88.000 305.200 C 87.766 307.070,87.406 309.860,87.200 311.400 C 86.993 312.940,86.628 315.730,86.388 317.600 C 86.148 319.470,85.788 322.260,85.588 323.800 C 85.388 325.340,85.028 328.130,84.788 330.000 C 84.028 335.917,83.611 339.115,83.213 342.100 C 82.843 344.869,82.451 347.939,81.566 355.000 C 81.345 356.760,81.018 358.875,80.838 359.700 C 80.532 361.102,80.573 361.200,81.456 361.200 C 81.975 361.200,82.400 361.380,82.400 361.600 C 82.400 361.820,82.681 362.000,83.024 362.000 C 83.367 362.000,83.536 362.180,83.400 362.400 C 83.264 362.620,83.523 362.800,83.976 362.800 C 84.429 362.800,84.800 362.950,84.800 363.132 C 84.800 363.315,85.295 363.720,85.900 364.032 C 86.505 364.345,87.349 364.915,87.775 365.300 C 88.202 365.685,88.715 366.000,88.915 366.000 C 89.115 366.000,89.783 366.540,90.400 367.200 C 91.017 367.860,91.749 368.400,92.027 368.400 C 92.306 368.400,92.422 368.511,92.286 368.648 C 91.852 369.081,93.206 370.100,94.214 370.100 C 94.748 370.100,95.088 370.257,94.969 370.450 C 94.850 370.643,95.116 370.800,95.560 370.800 C 96.716 370.800,99.179 372.105,99.190 372.724 C 99.196 373.012,99.355 373.152,99.544 373.035 C 99.952 372.782,101.992 373.668,101.997 374.100 C 101.999 374.265,102.270 374.400,102.600 374.400 C 102.930 374.400,103.200 374.580,103.200 374.800 C 103.200 375.020,103.470 375.200,103.800 375.200 C 104.130 375.200,104.400 375.380,104.400 375.600 C 104.400 375.820,104.720 376.000,105.112 376.000 C 105.503 376.000,106.083 376.360,106.400 376.800 C 106.717 377.240,107.397 377.600,107.912 377.600 C 108.434 377.600,108.738 377.777,108.600 378.000 C 108.456 378.233,108.863 378.400,109.576 378.400 C 110.249 378.400,110.800 378.580,110.800 378.800 C 110.800 379.020,111.160 379.200,111.600 379.200 C 112.040 379.200,112.400 379.380,112.400 379.600 C 112.400 379.820,112.760 380.000,113.200 380.000 C 113.640 380.000,114.000 380.180,114.000 380.400 C 114.000 380.620,114.360 380.800,114.800 380.800 C 115.240 380.800,115.600 380.980,115.600 381.200 C 115.600 381.420,115.960 381.600,116.400 381.600 C 116.840 381.600,117.200 381.780,117.200 382.000 C 117.200 382.220,117.560 382.400,118.000 382.400 C 118.440 382.400,118.800 382.580,118.800 382.800 C 118.800 383.020,118.993 383.200,119.229 383.200 C 119.464 383.200,119.929 383.472,120.261 383.804 C 120.593 384.136,121.030 384.305,121.232 384.180 C 121.435 384.055,121.600 384.104,121.600 384.289 C 121.600 384.474,122.087 384.666,122.682 384.715 C 123.278 384.764,123.944 384.984,124.162 385.202 C 124.381 385.421,124.974 385.600,125.480 385.600 C 125.986 385.600,126.400 385.780,126.400 386.000 C 126.400 386.220,126.850 386.400,127.400 386.400 C 127.950 386.400,128.400 386.580,128.400 386.800 C 128.400 387.020,128.670 387.200,129.000 387.200 C 129.330 387.200,129.600 387.380,129.600 387.600 C 129.600 387.820,130.050 388.000,130.600 388.000 C 131.150 388.000,131.600 388.180,131.600 388.400 C 131.600 388.620,131.945 388.800,132.367 388.800 C 132.788 388.800,133.193 388.935,133.267 389.100 C 133.507 389.642,138.548 391.137,141.100 391.423 C 142.475 391.577,143.600 391.860,143.600 392.052 C 143.600 392.243,143.960 392.400,144.400 392.400 C 144.840 392.400,145.200 392.580,145.200 392.800 C 145.200 393.020,145.819 393.200,146.576 393.200 C 147.333 393.200,148.064 393.380,148.200 393.600 C 148.336 393.820,149.067 394.000,149.824 394.000 C 150.581 394.000,151.200 394.180,151.200 394.400 C 151.200 394.620,151.819 394.800,152.576 394.800 C 153.333 394.800,154.064 394.980,154.200 395.200 C 154.336 395.420,155.437 395.600,156.647 395.600 C 158.012 395.600,158.753 395.752,158.600 396.000 C 158.448 396.247,159.129 396.400,160.376 396.400 C 161.489 396.400,162.400 396.580,162.400 396.800 C 162.400 397.020,163.030 397.200,163.800 397.200 C 164.570 397.200,165.200 397.380,165.200 397.600 C 165.200 397.833,166.533 398.000,168.400 398.000 C 170.267 398.000,171.600 398.167,171.600 398.400 C 171.600 398.622,172.656 398.800,173.967 398.800 C 175.486 398.800,176.406 398.979,176.535 399.300 C 176.696 399.700,176.743 399.700,176.768 399.300 C 176.786 399.025,177.055 398.800,177.367 398.800 C 177.678 398.800,178.008 399.025,178.100 399.300 C 178.231 399.692,183.289 399.800,201.600 399.800 C 219.911 399.800,224.969 399.692,225.100 399.300 C 225.212 398.964,226.176 398.800,228.033 398.800 C 229.611 398.800,230.800 398.628,230.800 398.400 C 230.800 398.171,232.000 398.000,233.600 398.000 C 235.200 398.000,236.400 397.829,236.400 397.600 C 236.400 397.380,237.311 397.200,238.424 397.200 C 239.671 397.200,240.352 397.047,240.200 396.800 C 240.049 396.555,240.670 396.400,241.800 396.400 C 242.930 396.400,243.551 396.245,243.400 396.000 C 243.248 395.753,243.929 395.600,245.176 395.600 C 246.289 395.600,247.200 395.420,247.200 395.200 C 247.200 394.980,248.111 394.800,249.224 394.800 C 250.471 394.800,251.152 394.647,251.000 394.400 C 250.853 394.162,251.329 394.000,252.176 394.000 C 252.959 394.000,253.600 393.820,253.600 393.600 C 253.600 393.380,254.331 393.200,255.224 393.200 C 256.204 393.200,256.749 393.042,256.600 392.800 C 256.456 392.567,256.863 392.400,257.576 392.400 C 258.249 392.400,258.800 392.243,258.800 392.052 C 258.800 391.860,259.707 391.583,260.816 391.436 C 261.925 391.289,263.230 391.009,263.716 390.814 C 264.202 390.619,265.455 390.227,266.500 389.943 C 267.545 389.658,268.400 389.285,268.400 389.113 C 268.400 388.941,268.940 388.800,269.600 388.800 C 270.260 388.800,270.800 388.620,270.800 388.400 C 270.800 388.180,271.171 388.000,271.624 388.000 C 272.077 388.000,272.336 387.820,272.200 387.600 C 272.064 387.380,272.323 387.200,272.776 387.200 C 273.229 387.200,273.600 387.020,273.600 386.800 C 273.600 386.580,274.140 386.400,274.800 386.400 C 275.460 386.400,276.000 386.220,276.000 386.000 C 276.000 385.780,276.360 385.600,276.800 385.600 C 277.240 385.600,277.600 385.420,277.600 385.200 C 277.600 384.980,278.219 384.800,278.976 384.800 C 279.733 384.800,280.464 384.620,280.600 384.400 C 280.736 384.180,281.157 384.000,281.535 384.000 C 281.914 384.000,282.483 383.640,282.800 383.200 C 283.117 382.760,283.697 382.400,284.088 382.400 C 284.480 382.400,284.800 382.220,284.800 382.000 C 284.800 381.780,285.160 381.600,285.600 381.600 C 286.040 381.600,286.401 381.465,286.403 381.300 C 286.407 380.894,288.386 380.000,289.280 380.000 C 289.676 380.000,290.000 379.820,290.000 379.600 C 290.000 379.380,290.360 379.200,290.800 379.200 C 291.240 379.200,291.600 379.020,291.600 378.800 C 291.600 378.580,291.960 378.400,292.400 378.400 C 292.840 378.400,293.200 378.220,293.200 378.000 C 293.200 377.780,293.560 377.600,294.000 377.600 C 294.440 377.600,294.800 377.420,294.800 377.200 C 294.800 376.980,295.120 376.800,295.512 376.800 C 295.903 376.800,296.483 376.440,296.800 376.000 C 297.117 375.560,297.697 375.200,298.088 375.200 C 298.480 375.200,298.800 375.040,298.800 374.845 C 298.800 374.649,299.435 374.370,300.211 374.224 C 300.987 374.079,301.535 373.819,301.429 373.647 C 301.323 373.476,301.858 373.091,302.618 372.793 C 303.378 372.495,304.000 372.104,304.000 371.925 C 304.000 371.746,304.450 371.600,305.000 371.600 C 305.550 371.600,306.000 371.464,306.000 371.298 C 306.000 371.131,306.585 370.737,307.300 370.422 C 308.015 370.107,309.261 369.163,310.069 368.325 C 310.876 367.486,311.639 366.800,311.764 366.800 C 311.990 366.800,313.212 365.853,314.216 364.900 C 314.506 364.625,314.986 364.400,315.283 364.400 C 315.580 364.400,316.083 364.040,316.400 363.600 C 316.717 363.160,317.257 362.800,317.600 362.800 C 317.943 362.800,318.483 362.440,318.800 362.000 C 319.117 361.560,319.697 361.200,320.088 361.200 C 320.480 361.200,320.800 361.117,320.800 361.015 C 320.800 360.914,320.431 357.989,319.980 354.515 C 319.529 351.042,318.989 346.805,318.780 345.100 C 318.333 341.451,317.698 336.514,317.173 332.600 C 316.812 329.906,316.487 327.401,315.577 320.300 C 314.978 315.625,314.465 311.687,313.988 308.100 C 313.761 306.395,313.406 303.650,313.200 302.000 C 312.994 300.350,312.634 297.560,312.400 295.800 C 312.166 294.040,311.790 291.160,311.564 289.400 C 310.688 282.579,310.416 280.490,310.000 277.400 C 309.501 273.687,309.011 269.910,308.445 265.400 C 307.824 260.449,307.608 258.808,307.207 256.000 C 307.003 254.570,306.639 251.780,306.400 249.800 C 306.161 247.820,305.768 245.009,305.528 243.553 L 305.092 240.906 299.246 246.696 C 291.323 254.542,273.101 268.800,270.995 268.800 C 270.857 268.800,269.959 269.340,269.000 270.000 C 268.041 270.660,267.172 271.200,267.069 271.200 C 266.966 271.200,265.738 271.894,264.341 272.743 C 258.713 276.160,241.172 284.695,234.600 287.214 C 234.160 287.382,232.947 287.898,231.904 288.360 C 230.862 288.822,229.889 289.200,229.743 289.200 C 229.597 289.200,227.300 290.086,224.639 291.168 C 221.978 292.251,216.290 294.292,212.000 295.705 C 199.886 299.694,201.383 299.407,197.975 298.394 C 189.290 295.813,169.822 288.575,161.200 284.721 C 142.737 276.470,126.282 266.917,115.227 258.032 C 113.152 256.364,111.015 254.702,110.477 254.339 C 109.939 253.975,106.576 250.786,103.003 247.252 C 99.431 243.717,96.394 240.940,96.254 241.079 " stroke="none" fill="#fb7a0c" fill-rule="evenodd"></path><path id="path3" d="M299.435 66.996 C 300.736 68.534,302.028 70.034,302.306 70.330 C 302.584 70.627,303.304 71.529,303.906 72.335 C 304.508 73.141,305.228 74.041,305.506 74.335 C 305.784 74.629,306.503 75.529,307.104 76.335 C 307.704 77.141,308.287 77.890,308.399 78.000 C 308.511 78.110,309.367 79.235,310.301 80.500 C 311.235 81.765,312.702 83.745,313.559 84.900 C 316.965 89.487,323.067 100.199,324.896 104.800 C 325.114 105.350,325.452 106.113,325.647 106.495 C 325.841 106.877,326.000 107.606,326.000 108.115 C 326.000 108.624,326.220 109.260,326.488 109.528 C 327.093 110.133,327.099 121.047,326.495 122.699 C 326.274 123.304,325.871 124.610,325.601 125.600 C 324.837 128.395,324.163 129.950,321.875 134.200 C 319.811 138.032,311.726 146.400,310.087 146.400 C 309.176 146.400,309.339 147.651,310.589 150.249 C 312.900 155.049,315.501 162.144,317.023 167.800 C 317.379 169.120,317.840 170.830,318.048 171.600 C 318.596 173.628,319.738 180.150,320.500 185.600 C 321.342 191.623,321.008 210.281,320.016 212.600 C 319.828 213.040,319.461 214.300,319.200 215.400 C 318.939 216.500,318.581 217.760,318.403 218.200 C 318.226 218.640,317.853 219.630,317.575 220.400 C 316.014 224.720,309.940 235.594,308.414 236.800 C 308.275 236.910,307.729 237.630,307.200 238.400 C 306.671 239.170,306.073 239.914,305.870 240.054 C 305.668 240.194,305.623 241.004,305.771 241.854 C 306.026 243.326,306.187 244.520,307.189 252.400 C 307.426 254.270,307.793 257.060,308.004 258.600 C 308.431 261.722,308.971 265.797,309.595 270.600 C 309.823 272.360,310.177 275.060,310.382 276.600 C 310.586 278.140,310.954 281.020,311.200 283.000 C 311.446 284.980,311.804 287.770,311.997 289.200 C 312.353 291.844,312.868 295.797,313.559 301.200 C 314.136 305.707,314.658 309.770,315.795 318.600 C 316.361 323.000,317.019 328.220,317.257 330.200 C 317.495 332.180,317.839 334.970,318.022 336.400 C 318.204 337.830,318.554 340.620,318.800 342.600 C 319.046 344.580,319.414 347.460,319.618 349.000 C 319.823 350.540,320.142 353.150,320.328 354.800 C 320.655 357.700,321.318 360.000,321.827 360.000 C 322.334 360.000,323.963 358.496,323.720 358.253 C 323.487 358.020,324.191 357.841,324.900 357.953 C 325.065 357.979,325.200 357.730,325.200 357.400 C 325.200 357.070,325.378 356.800,325.595 356.800 C 325.967 356.800,327.015 356.040,328.216 354.900 C 328.506 354.625,328.946 354.400,329.195 354.400 C 329.444 354.400,329.536 354.220,329.400 354.000 C 329.264 353.780,329.445 353.600,329.802 353.600 C 330.160 353.600,331.329 352.700,332.400 351.600 C 333.471 350.500,334.529 349.600,334.750 349.600 C 334.972 349.600,335.281 349.392,335.438 349.138 C 335.629 348.830,335.537 348.781,335.162 348.991 C 334.853 349.164,335.050 348.858,335.600 348.311 C 336.150 347.765,336.658 347.466,336.729 347.647 C 336.801 347.828,337.096 347.757,337.385 347.488 C 337.770 347.132,337.789 346.921,337.456 346.706 C 337.177 346.526,337.310 346.408,337.800 346.402 C 338.240 346.397,339.050 345.811,339.600 345.100 C 340.150 344.388,341.005 343.392,341.500 342.885 C 341.995 342.378,342.400 341.762,342.400 341.515 C 342.400 341.268,342.517 341.184,342.660 341.327 C 342.803 341.470,343.378 341.095,343.938 340.493 C 344.498 339.892,345.100 339.445,345.278 339.500 C 345.455 339.555,345.600 339.324,345.600 338.987 C 345.600 338.651,345.915 338.258,346.300 338.115 C 347.065 337.831,348.799 335.998,348.800 335.471 C 348.800 335.102,350.072 333.745,350.271 333.900 C 350.342 333.955,350.435 333.865,350.478 333.700 C 350.520 333.535,350.880 333.051,351.278 332.625 C 351.675 332.198,352.000 331.692,352.000 331.501 C 352.000 331.309,352.167 331.256,352.371 331.382 C 352.575 331.508,352.857 331.249,352.998 330.806 C 353.139 330.363,353.432 330.000,353.651 330.000 C 353.869 330.000,353.965 329.865,353.866 329.700 C 353.664 329.367,354.377 328.599,355.000 328.478 C 355.220 328.435,355.400 328.219,355.400 327.999 C 355.400 327.778,355.924 327.147,356.565 326.597 C 357.205 326.046,357.616 325.483,357.479 325.345 C 357.341 325.207,357.753 324.604,358.395 324.005 C 359.037 323.405,359.615 322.673,359.681 322.378 C 359.849 321.622,361.339 320.071,361.700 320.276 C 361.865 320.370,362.000 320.194,362.000 319.886 C 362.000 319.577,362.360 318.998,362.800 318.600 C 363.240 318.202,363.600 317.634,363.600 317.338 C 363.600 317.042,363.780 316.800,364.000 316.800 C 364.220 316.800,364.400 316.480,364.400 316.088 C 364.400 315.697,364.760 315.117,365.200 314.800 C 365.640 314.483,366.000 313.903,366.000 313.512 C 366.000 313.120,366.281 312.800,366.624 312.800 C 366.967 312.800,367.136 312.620,367.000 312.400 C 366.864 312.180,366.943 312.000,367.176 312.000 C 367.409 312.000,367.600 311.717,367.600 311.371 C 367.600 310.468,368.673 309.451,368.936 310.104 C 369.047 310.377,369.151 310.233,369.168 309.785 C 369.186 309.337,369.733 308.347,370.384 307.585 C 371.035 306.823,371.575 305.885,371.584 305.500 C 371.593 305.115,371.780 304.800,372.000 304.800 C 372.220 304.800,372.403 304.395,372.406 303.900 C 372.411 303.172,372.486 303.115,372.800 303.600 C 373.102 304.068,373.189 303.957,373.194 303.100 C 373.197 302.495,373.391 302.000,373.624 302.000 C 373.857 302.000,373.942 301.829,373.812 301.620 C 373.683 301.411,373.902 301.066,374.299 300.854 C 374.695 300.642,375.060 299.979,375.110 299.381 C 375.159 298.783,375.560 297.982,376.000 297.600 C 376.440 297.218,376.800 296.612,376.800 296.253 C 376.800 295.894,376.980 295.600,377.200 295.600 C 377.420 295.600,377.600 295.240,377.600 294.800 C 377.600 294.360,377.780 294.000,378.000 294.000 C 378.220 294.000,378.400 293.722,378.400 293.383 C 378.400 293.044,378.760 292.380,379.200 291.908 C 379.640 291.436,380.003 290.588,380.006 290.025 C 380.011 289.216,380.094 289.127,380.400 289.600 C 380.693 290.054,380.789 289.878,380.794 288.876 C 380.797 288.097,380.964 287.654,381.200 287.800 C 381.420 287.936,381.600 287.666,381.600 287.200 C 381.600 286.734,381.780 286.464,382.000 286.600 C 382.226 286.740,382.400 286.412,382.400 285.847 C 382.400 285.297,382.580 284.736,382.800 284.600 C 383.020 284.464,383.200 283.913,383.200 283.376 C 383.200 282.839,383.380 282.400,383.600 282.400 C 383.820 282.400,384.000 282.040,384.000 281.600 C 384.000 281.160,384.180 280.800,384.400 280.800 C 384.620 280.800,384.800 280.361,384.800 279.824 C 384.800 279.287,384.980 278.736,385.200 278.600 C 385.420 278.464,385.600 278.003,385.600 277.576 C 385.600 277.149,385.780 276.800,386.000 276.800 C 386.220 276.800,386.400 276.429,386.400 275.976 C 386.400 275.523,386.580 275.264,386.800 275.400 C 387.020 275.536,387.200 275.287,387.200 274.847 C 387.200 274.407,387.380 273.936,387.600 273.800 C 387.820 273.664,388.000 273.034,388.000 272.400 C 388.000 271.766,388.180 271.136,388.400 271.000 C 388.620 270.864,388.800 270.313,388.800 269.776 C 388.800 269.239,389.160 268.440,389.600 268.000 C 390.040 267.560,390.400 266.851,390.400 266.424 C 390.400 265.997,390.570 265.542,390.777 265.414 C 390.984 265.286,391.277 264.331,391.427 263.291 C 391.578 262.251,391.903 261.140,392.150 260.823 C 392.494 260.382,392.482 260.317,392.100 260.547 C 391.785 260.736,391.600 260.616,391.600 260.224 C 391.600 259.881,391.780 259.600,392.000 259.600 C 392.220 259.600,392.400 259.075,392.400 258.433 C 392.400 257.792,392.608 257.197,392.863 257.112 C 393.118 257.027,393.310 256.379,393.290 255.672 C 393.270 254.964,393.421 254.489,393.627 254.616 C 393.832 254.743,394.000 254.196,394.000 253.400 C 394.000 252.537,394.161 252.053,394.400 252.200 C 394.644 252.351,394.800 251.737,394.800 250.624 C 394.800 249.621,394.980 248.800,395.200 248.800 C 395.420 248.800,395.600 247.979,395.600 246.976 C 395.600 245.863,395.756 245.249,396.000 245.400 C 396.247 245.553,396.400 244.863,396.400 243.600 C 396.400 242.337,396.553 241.647,396.800 241.800 C 397.039 241.947,397.200 241.463,397.200 240.600 C 397.200 239.804,397.352 239.247,397.537 239.361 C 397.723 239.476,397.913 238.362,397.960 236.885 C 398.006 235.408,398.214 234.140,398.422 234.067 C 398.630 233.993,398.800 232.768,398.800 231.343 C 398.800 229.911,398.961 228.852,399.160 228.975 C 399.841 229.396,400.081 219.356,399.941 196.233 C 399.831 178.156,399.690 173.030,399.300 172.900 C 398.942 172.781,398.800 171.540,398.800 168.543 C 398.800 165.851,398.657 164.441,398.400 164.600 C 398.180 164.736,398.000 164.657,398.000 164.424 C 398.000 164.191,397.775 164.000,397.501 164.000 C 397.226 164.000,374.517 141.545,347.036 114.100 C 319.555 86.655,298.135 65.458,299.435 66.996 M121.034 67.254 C 121.932 68.214,123.822 70.440,125.234 72.200 C 126.645 73.960,127.909 75.490,128.043 75.600 C 128.757 76.187,134.793 84.586,137.576 88.866 C 142.134 95.875,141.354 95.317,144.397 93.752 L 146.994 92.417 134.002 79.445 C 126.856 72.311,120.648 66.256,120.205 65.991 C 119.762 65.725,120.135 66.294,121.034 67.254 M90.770 146.564 C 91.724 147.583,92.402 147.890,92.397 147.300 C 92.396 147.135,91.811 146.669,91.097 146.264 L 89.800 145.527 90.770 146.564 " stroke="none" fill="#0454bb" fill-rule="evenodd"></path><path id="path4" d="M110.962 57.662 C 110.778 57.960,110.853 58.015,111.174 57.816 C 111.486 57.623,112.295 58.086,113.336 59.054 L 115.000 60.600 113.419 58.900 C 111.737 57.092,111.414 56.929,110.962 57.662 M287.387 59.700 L 285.000 62.200 287.514 59.800 L 290.027 57.400 292.523 60.000 C 293.895 61.430,296.184 63.950,297.609 65.600 C 299.033 67.250,300.296 68.690,300.414 68.800 C 300.999 69.343,309.217 79.633,310.318 81.200 C 311.014 82.190,312.359 84.080,313.306 85.400 C 317.468 91.195,322.499 100.004,324.450 104.907 C 328.487 115.058,326.240 128.806,319.134 137.438 C 315.724 141.580,315.284 141.991,309.501 146.434 L 308.676 147.068 309.691 149.234 C 311.589 153.283,312.400 155.190,312.400 155.601 C 312.400 155.826,312.559 156.323,312.753 156.705 C 313.350 157.878,313.924 159.326,314.455 161.000 C 315.025 162.796,315.855 164.003,315.417 162.400 C 314.905 160.527,311.918 153.008,310.589 150.249 C 309.339 147.651,309.176 146.400,310.087 146.400 C 311.072 146.400,316.697 141.217,319.419 137.800 C 322.035 134.517,324.485 129.682,325.601 125.600 C 325.871 124.610,326.274 123.304,326.495 122.699 C 327.099 121.047,327.093 110.133,326.488 109.528 C 326.220 109.260,326.000 108.624,326.000 108.115 C 326.000 107.606,325.841 106.877,325.647 106.495 C 325.452 106.113,325.114 105.350,324.896 104.800 C 323.067 100.199,316.965 89.487,313.559 84.900 C 312.702 83.745,311.235 81.765,310.301 80.500 C 309.367 79.235,308.511 78.110,308.399 78.000 C 308.287 77.890,307.704 77.141,307.104 76.335 C 306.503 75.529,305.784 74.629,305.506 74.335 C 305.228 74.041,304.508 73.141,303.906 72.335 C 303.304 71.529,302.584 70.627,302.306 70.330 C 302.028 70.034,300.720 68.535,299.400 66.998 C 296.389 63.494,290.371 57.200,290.030 57.200 C 289.890 57.200,288.701 58.325,287.387 59.700 M108.400 60.200 C 107.428 61.190,106.723 62.000,106.833 62.000 C 106.943 62.000,107.828 61.190,108.800 60.200 C 109.772 59.210,110.477 58.400,110.367 58.400 C 110.257 58.400,109.372 59.210,108.400 60.200 M116.654 62.900 C 119.404 65.853,121.223 67.930,123.048 70.200 C 124.109 71.520,125.163 72.797,125.389 73.039 C 127.775 75.584,135.122 85.599,138.127 90.400 C 141.689 96.094,141.191 95.800,144.439 94.125 C 145.958 93.341,147.200 92.638,147.200 92.563 C 147.200 92.342,145.958 92.872,143.693 94.060 L 141.585 95.165 141.093 94.319 C 138.548 89.946,131.357 79.630,128.183 75.800 C 127.454 74.920,125.809 72.917,124.528 71.349 C 120.670 66.625,116.224 61.661,115.822 61.630 C 115.613 61.613,115.988 62.185,116.654 62.900 M282.826 64.522 L 281.851 65.800 283.126 64.625 C 284.451 63.403,284.603 63.185,284.100 63.222 C 283.935 63.234,283.362 63.819,282.826 64.522 M104.175 64.900 L 103.000 66.200 104.300 65.025 C 105.512 63.930,105.784 63.600,105.475 63.600 C 105.406 63.600,104.821 64.185,104.175 64.900 M279.775 68.100 L 278.600 69.400 279.900 68.225 C 280.615 67.579,281.200 66.994,281.200 66.925 C 281.200 66.616,280.870 66.888,279.775 68.100 M270.575 79.468 C 269.959 80.276,269.659 80.811,269.909 80.656 C 270.421 80.340,272.153 78.000,271.875 78.000 C 271.776 78.000,271.191 78.661,270.575 79.468 M92.000 79.600 C 91.530 80.260,91.236 80.800,91.346 80.800 C 91.456 80.800,91.930 80.260,92.400 79.600 C 92.870 78.940,93.164 78.400,93.054 78.400 C 92.944 78.400,92.470 78.940,92.000 79.600 M200.500 79.891 C 201.325 79.978,202.675 79.978,203.500 79.891 C 204.325 79.805,203.650 79.734,202.000 79.734 C 200.350 79.734,199.675 79.805,200.500 79.891 M194.900 80.276 C 195.285 80.376,195.915 80.376,196.300 80.276 C 196.685 80.175,196.370 80.093,195.600 80.093 C 194.830 80.093,194.515 80.175,194.900 80.276 M267.944 83.100 C 266.793 84.489,266.306 85.200,266.504 85.200 C 266.614 85.200,267.186 84.570,267.773 83.800 C 268.863 82.371,268.995 81.832,267.944 83.100 M262.214 91.435 C 261.841 92.004,261.605 92.538,261.689 92.622 C 261.773 92.707,262.158 92.241,262.544 91.588 C 263.406 90.128,263.148 90.009,262.214 91.435 M252.800 91.758 C 252.800 91.870,253.475 92.271,254.300 92.648 C 255.125 93.026,255.935 93.405,256.100 93.491 C 256.265 93.577,256.400 93.555,256.400 93.442 C 256.400 93.330,255.725 92.929,254.900 92.552 C 254.075 92.174,253.265 91.795,253.100 91.709 C 252.935 91.623,252.800 91.645,252.800 91.758 M74.501 115.000 C 74.505 115.880,74.587 116.193,74.683 115.695 C 74.779 115.198,74.775 114.478,74.675 114.095 C 74.575 113.713,74.496 114.120,74.501 115.000 M74.909 119.600 C 74.909 120.590,74.987 120.995,75.082 120.500 C 75.178 120.005,75.178 119.195,75.082 118.700 C 74.987 118.205,74.909 118.610,74.909 119.600 M88.268 144.028 C 89.550 145.143,91.016 146.257,91.524 146.503 C 92.258 146.858,92.397 147.163,92.198 147.975 C 91.957 148.962,91.969 148.970,92.543 148.200 C 93.192 147.329,92.484 146.000,91.371 146.000 C 91.094 146.000,90.807 145.865,90.733 145.700 C 90.543 145.272,86.545 142.000,86.212 142.000 C 86.060 142.000,86.985 142.913,88.268 144.028 M266.800 144.152 C 258.283 146.031,254.438 155.884,259.534 162.772 C 264.117 168.967,272.384 169.588,277.754 164.141 C 282.462 159.365,282.327 151.785,277.455 147.294 C 275.224 145.237,270.346 143.105,269.080 143.634 C 269.036 143.652,268.010 143.885,266.800 144.152 M128.296 144.548 C 126.596 145.182,126.031 145.569,123.875 147.578 C 121.683 149.622,120.400 152.658,120.400 155.804 C 120.400 170.073,141.396 172.032,143.937 158.000 C 145.528 149.212,136.534 141.477,128.296 144.548 M315.634 164.200 C 315.622 164.640,315.787 165.270,316.000 165.600 C 316.514 166.395,316.514 165.396,316.000 164.200 L 315.656 163.400 315.634 164.200 M316.456 167.000 C 316.456 167.440,316.611 168.160,316.800 168.600 L 317.144 169.400 317.144 168.600 C 317.144 168.160,316.989 167.440,316.800 167.000 L 316.456 166.200 316.456 167.000 M317.212 170.200 C 317.212 170.640,317.387 171.270,317.600 171.600 C 317.921 172.097,317.988 172.062,317.988 171.400 C 317.988 170.960,317.813 170.330,317.600 170.000 C 317.279 169.503,317.212 169.538,317.212 170.200 M318.075 173.000 C 318.086 173.440,318.232 174.340,318.400 175.000 L 318.705 176.200 318.725 175.000 C 318.735 174.340,318.589 173.440,318.400 173.000 L 318.056 172.200 318.075 173.000 M319.068 178.800 C 319.200 180.010,319.374 181.075,319.454 181.167 C 319.764 181.521,319.525 178.157,319.186 177.400 C 318.952 176.878,318.912 177.363,319.068 178.800 M319.744 182.800 C 320.014 184.550,320.791 192.328,320.962 195.000 C 321.033 196.100,321.024 194.930,320.942 192.400 C 320.757 186.673,320.301 182.167,319.863 181.732 C 319.679 181.549,319.626 182.030,319.744 182.800 M194.200 182.440 C 181.489 183.026,175.616 188.069,176.083 198.000 C 176.455 205.924,179.841 209.450,191.296 213.839 L 195.192 215.332 195.296 234.166 L 195.400 253.000 200.800 253.000 L 206.200 253.000 206.304 234.365 L 206.408 215.731 207.404 215.265 C 208.610 214.702,209.240 214.447,213.600 212.762 C 224.300 208.626,228.714 199.948,224.567 191.199 C 220.596 182.819,215.829 181.444,194.200 182.440 M80.514 195.000 C 80.517 196.100,80.595 196.503,80.687 195.895 C 80.779 195.286,80.777 194.386,80.682 193.895 C 80.587 193.403,80.511 193.900,80.514 195.000 M305.431 242.000 C 305.760 244.893,306.745 252.601,307.615 259.100 C 308.018 262.108,308.306 264.322,309.164 271.000 C 309.390 272.760,309.766 275.640,310.000 277.400 C 310.234 279.160,310.610 282.040,310.836 283.800 C 311.688 290.434,311.982 292.690,312.397 295.800 C 312.632 297.560,312.994 300.350,313.200 302.000 C 313.406 303.650,313.761 306.395,313.988 308.100 C 314.781 314.065,315.155 317.028,315.556 320.547 C 315.778 322.498,316.059 324.193,316.180 324.314 C 316.578 324.711,316.506 324.042,314.356 307.400 C 314.129 305.640,313.770 302.850,313.559 301.200 C 312.868 295.797,312.353 291.844,311.997 289.200 C 311.804 287.770,311.446 284.980,311.200 283.000 C 310.954 281.020,310.586 278.140,310.382 276.600 C 310.177 275.060,309.823 272.360,309.595 270.600 C 309.366 268.840,309.004 266.095,308.790 264.500 C 308.575 262.905,308.225 260.295,308.010 258.700 C 307.599 255.640,306.987 250.861,306.409 246.200 C 306.218 244.660,305.874 242.680,305.644 241.800 L 305.226 240.200 305.431 242.000 M95.469 244.756 C 95.321 245.495,95.220 246.482,95.244 246.950 C 95.268 247.418,95.447 246.990,95.642 246.000 C 95.837 245.010,95.938 244.023,95.867 243.806 C 95.796 243.590,95.617 244.017,95.469 244.756 M94.493 252.800 C 94.493 253.570,94.575 253.885,94.676 253.500 C 94.776 253.115,94.776 252.485,94.676 252.100 C 94.575 251.715,94.493 252.030,94.493 252.800 M93.701 259.000 C 93.705 259.880,93.787 260.193,93.883 259.695 C 93.979 259.198,93.975 258.478,93.875 258.095 C 93.775 257.713,93.696 258.120,93.701 259.000 M92.901 265.400 C 92.905 266.280,92.987 266.593,93.083 266.095 C 93.179 265.598,93.175 264.878,93.075 264.495 C 92.975 264.113,92.896 264.520,92.901 265.400 M92.101 271.400 C 92.105 272.280,92.187 272.593,92.283 272.095 C 92.379 271.598,92.375 270.878,92.275 270.495 C 92.175 270.113,92.096 270.520,92.101 271.400 M91.301 277.800 C 91.305 278.680,91.387 278.993,91.483 278.495 C 91.579 277.998,91.575 277.278,91.475 276.895 C 91.375 276.513,91.296 276.920,91.301 277.800 M90.501 284.200 C 90.505 285.080,90.587 285.393,90.683 284.895 C 90.779 284.398,90.775 283.678,90.675 283.295 C 90.575 282.913,90.496 283.320,90.501 284.200 M89.701 290.200 C 89.705 291.080,89.787 291.393,89.883 290.895 C 89.979 290.398,89.975 289.678,89.875 289.295 C 89.775 288.913,89.696 289.320,89.701 290.200 M88.901 296.600 C 88.905 297.480,88.987 297.793,89.083 297.295 C 89.179 296.798,89.175 296.078,89.075 295.695 C 88.975 295.313,88.896 295.720,88.901 296.600 M88.093 302.800 C 88.093 303.570,88.175 303.885,88.276 303.500 C 88.376 303.115,88.376 302.485,88.276 302.100 C 88.175 301.715,88.093 302.030,88.093 302.800 M87.293 309.200 C 87.293 309.970,87.375 310.285,87.476 309.900 C 87.576 309.515,87.576 308.885,87.476 308.500 C 87.375 308.115,87.293 308.430,87.293 309.200 M85.418 322.618 C 85.265 323.639,85.222 324.555,85.322 324.655 C 85.422 324.755,85.629 324.002,85.782 322.982 C 85.935 321.961,85.978 321.045,85.878 320.945 C 85.778 320.845,85.571 321.598,85.418 322.618 M316.501 326.600 C 316.497 327.700,316.632 329.140,316.800 329.800 L 317.105 331.000 317.118 329.800 C 317.124 329.140,316.990 327.700,316.818 326.600 L 316.507 324.600 316.501 326.600 M317.287 333.400 C 317.291 334.060,317.432 335.140,317.600 335.800 L 317.905 337.000 317.913 335.600 C 317.917 334.830,317.776 333.750,317.600 333.200 C 317.289 332.230,317.280 332.235,317.287 333.400 M83.818 335.018 C 83.665 336.039,83.622 336.955,83.722 337.055 C 83.822 337.155,84.029 336.402,84.182 335.382 C 84.335 334.361,84.378 333.445,84.278 333.345 C 84.178 333.245,83.971 333.998,83.818 335.018 M318.051 339.400 C 318.048 339.840,318.195 340.920,318.377 341.800 L 318.708 343.400 318.726 341.800 C 318.736 340.920,318.589 339.840,318.400 339.400 L 318.056 338.600 318.051 339.400 M83.018 341.018 C 82.865 342.039,82.822 342.955,82.922 343.055 C 83.022 343.155,83.229 342.402,83.382 341.382 C 83.535 340.361,83.578 339.445,83.478 339.345 C 83.378 339.245,83.171 339.998,83.018 341.018 M318.851 345.800 C 318.848 346.240,318.995 347.320,319.177 348.200 L 319.508 349.800 319.526 348.200 C 319.536 347.320,319.389 346.240,319.200 345.800 L 318.856 345.000 318.851 345.800 M319.865 353.600 C 319.998 355.030,320.172 356.275,320.253 356.367 C 320.569 356.725,320.323 352.553,319.984 351.800 C 319.752 351.284,319.709 351.924,319.865 353.600 M81.418 353.418 C 81.265 354.439,81.222 355.355,81.322 355.455 C 81.422 355.555,81.629 354.802,81.782 353.782 C 81.935 352.761,81.978 351.845,81.878 351.745 C 81.778 351.645,81.571 352.398,81.418 353.418 M320.480 358.200 C 320.510 359.856,321.056 361.440,321.360 360.753 C 321.517 360.397,321.380 359.497,321.055 358.753 C 320.661 357.849,320.470 357.666,320.480 358.200 M80.509 359.386 C 80.243 360.251,80.105 361.038,80.202 361.135 C 80.478 361.411,81.246 359.134,81.112 358.438 C 81.046 358.094,80.774 358.521,80.509 359.386 M81.600 361.429 C 81.600 362.057,82.716 362.699,83.235 362.370 C 83.692 362.080,83.666 362.011,83.100 362.006 C 82.715 362.003,82.400 361.820,82.400 361.600 C 82.400 361.380,82.220 361.200,82.000 361.200 C 81.780 361.200,81.600 361.303,81.600 361.429 M316.460 363.442 C 316.162 363.778,315.999 364.132,316.095 364.229 C 316.192 364.326,316.598 364.044,316.998 363.602 C 317.397 363.161,317.561 362.807,317.362 362.815 C 317.163 362.824,316.757 363.105,316.460 363.442 M313.830 365.224 C 313.359 365.698,313.254 366.000,313.559 366.000 C 314.063 366.000,315.200 365.050,315.200 364.629 C 315.200 364.190,314.594 364.453,313.830 365.224 M88.800 366.229 C 88.800 366.653,90.036 367.697,90.267 367.467 C 90.392 367.341,90.217 366.960,89.876 366.619 C 89.241 365.984,88.800 365.824,88.800 366.229 M95.600 371.200 C 95.600 371.420,95.894 371.600,96.253 371.600 C 96.612 371.600,97.242 371.988,97.653 372.461 C 98.155 373.040,98.402 373.138,98.406 372.761 C 98.411 372.306,98.485 372.313,98.800 372.800 C 99.145 373.333,99.187 373.333,99.184 372.800 C 99.182 372.470,98.547 371.885,97.774 371.500 C 96.174 370.704,95.600 370.625,95.600 371.200 M99.600 373.140 C 99.600 373.363,99.960 373.660,100.400 373.800 C 100.840 373.940,101.200 374.222,101.200 374.427 C 101.200 374.632,101.380 374.800,101.600 374.800 C 102.282 374.800,102.039 373.707,101.300 373.446 C 100.915 373.311,100.375 373.095,100.100 372.966 C 99.825 372.838,99.600 372.916,99.600 373.140 M105.200 376.304 C 105.200 376.471,105.560 376.832,106.000 377.107 C 106.930 377.688,107.054 377.397,106.229 376.571 C 105.598 375.941,105.200 375.837,105.200 376.304 M116.000 382.000 C 116.000 382.220,116.270 382.400,116.600 382.400 C 116.930 382.400,117.200 382.220,117.200 382.000 C 117.200 381.780,116.930 381.600,116.600 381.600 C 116.270 381.600,116.000 381.780,116.000 382.000 M170.400 398.400 C 169.915 398.714,169.972 398.789,170.700 398.794 C 171.195 398.797,171.600 398.620,171.600 398.400 C 171.600 397.899,171.176 397.899,170.400 398.400 M176.800 399.200 C 176.800 399.420,177.070 399.600,177.400 399.600 C 177.730 399.600,178.000 399.420,178.000 399.200 C 178.000 398.980,177.730 398.800,177.400 398.800 C 177.070 398.800,176.800 398.980,176.800 399.200 " stroke="none" fill="#454c54" fill-rule="evenodd"></path></g></svg>