<svg xmlns="http://www.w3.org/2000/svg" xmlns:xlink="http://www.w3.org/1999/xlink" xmlns:serif="http://www.serif.com/" viewBox="0 0 100 125" version="1.1" xml:space="preserve" style="" x="0px" y="0px" fill-rule="evenodd" clip-rule="evenodd" stroke-linejoin="round" stroke-miterlimit="2"><g><path d="M28.65,36.343C28.402,38.015 27.695,41.88 26.07,45.498C23.659,50.866 23.157,59.324 22.955,64.39C22.539,74.835 18.256,78.148 14.344,80.195C13.005,80.895 11.695,81.406 10.638,82.052C9.653,82.654 9.035,83.445 9.202,85.065C9.321,86.225 10.021,86.83 11.018,87.082C12.047,87.343 13.295,87.322 14.648,87.15C19.583,86.524 25.75,83.834 28.958,81.939C27.336,77.418 26.658,69.155 28.279,64.141C29.339,60.864 31.372,58.899 34.096,58.862C36.994,58.821 38.902,60.941 39.441,64.53C39.976,68.098 39.133,73.288 37.441,77.532C36.581,79.69 35.491,81.596 34.291,82.988C36.858,86.32 40.411,87.992 40.411,87.992C41.451,88.482 41.897,89.725 41.407,90.765C40.917,91.805 39.675,92.251 38.635,91.761C38.635,91.761 34.227,89.683 31.009,85.546C26.551,88.114 17.603,91.802 11.874,91.41C9.669,91.26 7.874,90.535 6.676,89.25C5.815,88.327 5.223,87.104 5.057,85.491C4.85,83.478 5.239,82.032 5.936,80.897C6.878,79.361 8.501,78.382 10.461,77.451C12.173,76.638 14.204,75.814 15.825,73.927C17.446,72.04 18.597,69.108 18.792,64.224C19.011,58.74 19.659,49.601 22.269,43.791C23.678,40.655 24.295,37.305 24.516,35.832C21.989,35.484 19.194,35.028 16.679,34.457C13.458,33.725 10.681,32.75 9.246,31.662C4.034,27.708 4.61,22.074 5.867,18.634C6.809,16.057 8.686,14.587 10.822,13.777C13.481,12.769 16.569,12.893 18.059,12.857C18.691,12.842 19.519,12.236 20.455,11.617C22.524,10.247 24.757,8.431 26.078,7.761C35.691,2.887 45.851,10.485 47.861,17.854C48.974,21.935 49.296,30.059 47.565,36.01C47.356,36.725 47.117,37.407 46.847,38.051C47.344,39.527 49.789,46.189 54.591,50.126C59.43,54.093 64.503,57.633 68.225,61.66C71.912,65.649 74.329,70.104 74.261,75.75C84.213,77.733 91.36,69.674 91.36,69.674C92.125,68.816 93.443,68.74 94.302,69.506C95.16,70.271 95.235,71.589 94.469,72.447C94.469,72.447 85.85,82.065 73.82,79.906C72.811,85.229 70.365,88.904 67.283,91.129C63.661,93.745 59.098,94.407 54.614,93.236C47.833,91.465 43.989,85.867 43.534,79.357C43.255,75.363 44.88,72.415 47.405,70.697C49.84,69.04 53.207,68.527 56.705,69.547C61.595,70.973 64.914,72.748 70.054,74.51C69.76,70.567 67.845,67.388 65.165,64.488C61.563,60.591 56.633,57.188 51.949,53.348C48.042,50.145 45.455,45.405 44.051,42.258C42.795,43.418 41.288,44.121 39.536,44.222C35.381,44.463 32.898,41.909 31.531,38.596C31.261,37.941 31.038,37.258 30.855,36.571C30.258,36.513 29.508,36.438 28.65,36.343ZM30.13,32.313C29.966,30.486 30.011,29.175 30.011,29.175C30.055,28.026 31.023,27.128 32.172,27.172C33.321,27.215 34.218,28.184 34.175,29.333C34.175,29.333 34.082,31.558 34.544,34.057C34.577,34.171 34.6,34.29 34.613,34.41C34.791,35.281 35.038,36.173 35.382,37.006C36.076,38.688 37.187,40.185 39.296,40.063C40.271,40.006 41.041,39.506 41.67,38.765C42.512,37.772 43.113,36.396 43.564,34.846C45.08,29.636 44.815,22.523 43.841,18.95C42.372,13.564 34.989,7.914 27.962,11.477C26.501,12.219 23.882,14.47 21.68,15.766C20.349,16.55 19.094,17 18.159,17.023C17.127,17.048 15.169,16.928 13.268,17.379C11.838,17.719 10.39,18.395 9.78,20.064C8.985,22.24 8.468,25.841 11.764,28.342C12.882,29.19 15.092,29.823 17.602,30.393C21.918,31.374 27.095,31.999 30.13,32.313ZM27.266,19.969C26.144,19.718 25.436,18.604 25.687,17.482C25.937,16.36 27.052,15.652 28.174,15.902L31.139,16.564C32.261,16.815 32.969,17.929 32.718,19.051C32.468,20.173 31.353,20.881 30.231,20.631L27.266,19.969ZM69.784,78.812C64.114,76.953 60.706,75.054 55.539,73.547C52.972,72.799 50.487,73.21 49.001,74.776C48.045,75.783 47.563,77.249 47.69,79.066C48.021,83.795 50.741,87.918 55.667,89.204C58.911,90.052 62.224,89.643 64.844,87.751C67.265,86.004 69.049,83.038 69.784,78.812ZM32.27,78.694C32.578,78.167 32.87,77.592 33.146,76.985C34.481,74.052 35.357,70.386 35.434,67.344C35.465,66.136 35.375,65.036 35.1,64.155C34.913,63.556 34.719,63.02 34.154,63.028C33.607,63.035 33.239,63.416 32.924,63.908C32.331,64.833 31.974,66.13 31.749,67.588C31.205,71.107 31.484,75.532 32.27,78.694Z"/></g><text x="0" y="115" fill="#000000" font-size="5px" font-weight="bold" font-family="'Helvetica Neue', Helvetica, Arial-Unicode, Arial, Sans-serif">Created by Jordy Madueño</text><text x="0" y="120" fill="#000000" font-size="5px" font-weight="bold" font-family="'Helvetica Neue', Helvetica, Arial-Unicode, Arial, Sans-serif">from the Noun Project</text></svg>