<?xml version="1.0" standalone="no"?>
<!DOCTYPE svg PUBLIC "-//W3C//DTD SVG 20010904//EN"
 "http://www.w3.org/TR/2001/REC-SVG-20010904/DTD/svg10.dtd">
<svg version="1.0" xmlns="http://www.w3.org/2000/svg"
 width="500.000000pt" height="500.000000pt" viewBox="0 0 500.000000 500.000000"
 preserveAspectRatio="xMidYMid meet">

<g transform="translate(0.000000,500.000000) scale(0.100000,-0.100000)"
fill="#000000" stroke="none">
<path d="M1664 3276 c-126 -40 -373 -199 -501 -322 -91 -88 -103 -116 -103
-238 0 -284 136 -695 253 -767 47 -28 66 -24 112 24 56 59 79 126 116 339 17
101 41 224 54 273 67 264 178 433 346 528 l59 33 -38 37 c-20 19 -64 52 -96
71 -66 40 -124 46 -202 22z"/>
<path d="M3255 3269 c-46 -25 -74 -46 -127 -95 l-38 -35 -64 20 c-150 46 -285
37 -331 -24 -54 -70 -69 -136 -69 -310 -1 -141 2 -169 22 -235 56 -180 123
-258 288 -339 187 -93 275 -202 282 -353 6 -112 -30 -210 -115 -315 -41 -52
-31 -54 70 -19 220 78 380 278 406 506 l6 55 31 -65 c85 -178 174 -169 273 28
77 153 139 400 148 592 8 162 -11 201 -157 324 -110 93 -232 173 -349 229
-128 61 -209 72 -276 36z m-199 -568 c89 -54 89 -228 0 -282 -90 -55 -191 20
-191 141 0 121 101 196 191 141z"/>
<path d="M2038 2690 c-35 -27 -58 -80 -58 -130 0 -87 53 -150 126 -150 34 0
48 6 73 30 28 28 51 83 51 120 0 37 -23 92 -51 120 -38 37 -101 42 -141 10z"/>
<path d="M2455 2166 c-89 -28 -129 -79 -105 -136 18 -43 98 -114 153 -135 44
-17 49 -17 91 -1 91 35 177 137 157 188 -31 79 -178 121 -296 84z"/>
</g>
</svg>
