<svg xmlns="http://www.w3.org/2000/svg" viewBox="0 0 32 32"><title>26-Video</title><g id="_26-Video" data-name="26-Video"><path d="M28,31H4a4,4,0,0,1-4-4V5A4,4,0,0,1,4,1H28a4,4,0,0,1,4,4V27A4,4,0,0,1,28,31ZM4,3A2,2,0,0,0,2,5V27a2,2,0,0,0,2,2H28a2,2,0,0,0,2-2V5a2,2,0,0,0-2-2Z"/><circle cx="23" cy="6" r="1"/><circle cx="27" cy="6" r="1"/><circle cx="5" cy="6" r="1"/><path d="M13,21a1,1,0,0,1-1-1V14a1,1,0,0,1,1.447-.895l6,3a1,1,0,0,1,0,1.79l-6,3A1,1,0,0,1,13,21Zm1-5.382v2.764L16.764,17Z"/></g></svg>